<?xml version="1.0" encoding="UTF-8" standalone="no"?>
<!-- Created with Inkscape (http://www.inkscape.org/) -->

<svg
   width="66.145828mm"
   height="66.145836mm"
   viewBox="0 0 66.145828 66.145836"
   version="1.1"
   id="svg5"
   xml:space="preserve"
   xmlns:inkscape="http://www.inkscape.org/namespaces/inkscape"
   xmlns:sodipodi="http://sodipodi.sourceforge.net/DTD/sodipodi-0.dtd"
   xmlns="http://www.w3.org/2000/svg"
   xmlns:svg="http://www.w3.org/2000/svg"><sodipodi:namedview
     id="namedview7"
     pagecolor="#ffffff"
     bordercolor="#666666"
     borderopacity="1.0"
     inkscape:showpageshadow="2"
     inkscape:pageopacity="0.0"
     inkscape:pagecheckerboard="0"
     inkscape:deskcolor="#d1d1d1"
     inkscape:document-units="mm"
     showgrid="false" /><defs
     id="defs2" /><g
     inkscape:label="Layer 1"
     inkscape:groupmode="layer"
     id="layer1"
     transform="translate(-25.464638,-28.158042)"><path
       style="fill:#000000;stroke-width:0.341223"
       d="m 25.464637,69.058335 v -25.24549 h 6.221639 6.221636 v 2.65583 2.655836 l -4.011319,0.09984 -4.011319,0.09986 -0.08458,20.000834 -0.08458,20.00084 h 27.181458 27.18147 v -13.33389 -13.33388 h 2.45591 2.45592 v 15.82287 15.82289 H 57.227732 25.464637 Z m 7.204002,13.33391 v -4.08907 h 6.433504 6.433504 l 1.398653,1.2445 c 0.926011,0.82395 1.73934,1.24449 2.406828,1.24449 0.69226,0 1.405689,-0.38995 2.276764,-1.24449 l 1.26858,-1.2445 h 14.28646 14.28644 v 4.08907 4.08906 H 57.064002 32.668639 Z m 16.045276,-5.33356 c 0,-1.36302 -0.09703,-1.60008 -0.654908,-1.60008 -0.567587,0 -0.654909,-0.23704 -0.654909,-1.77784 v -1.77785 l -1.719138,3.6e-4 -1.719136,3.5e-4 v -3.4673 -3.46731 l -0.900501,-0.11248 c -0.787404,-0.0981 -0.9005,-0.26556 -0.9005,-1.33311 0,-1.09483 -0.09298,-1.22088 -0.900501,-1.22088 h -0.9005 V 48.079694 33.856869 h 3.975821 3.97582 l 0.224723,-0.977819 c 0.30377,-1.321788 1.662513,-3.201028 2.913156,-4.029113 1.41683,-0.938119 4.39,-0.919363 6.11928,0.03859 1.6161,0.895265 3.05294,2.999979 3.56865,5.227463 0.78597,3.394768 2.79984,5.46469 5.82824,5.990427 l 1.39168,0.2416 v -5.023436 -5.02343 h 11.62464 11.62464 v 14.933964 14.933963 h -11.62464 -11.62464 v -9.173694 -9.173691 l -1.92078,-0.430797 c -3.38065,-0.75822 -5.42253,-2.908033 -6.48034,-6.8229 -0.70101,-2.59441 -2.65963,-4.785407 -4.59318,-5.13813 -1.83128,-0.334066 -4.0921,0.731033 -5.005745,2.358269 -1.139021,2.02864 -1.0726,2.068721 3.428315,2.068721 h 4.09318 v 14.222815 14.222844 h -0.81864 c -0.71728,0 -0.81863,0.15407 -0.81863,1.24449 0,1.14572 -0.078,1.24449 -0.98236,1.24449 h -0.98237 v 3.5557 3.55571 h -1.63727 -1.63727 v 1.77784 c 0,1.54081 -0.08733,1.77786 -0.654913,1.77786 -0.557886,0 -0.654909,0.23705 -0.654909,1.60008 0,1.18523 -0.12735,1.60006 -0.491183,1.60006 -0.363837,0 -0.491182,-0.41483 -0.491182,-1.60006 z M 42.98346,59.45794 44.596113,57.680093 H 42.889287 41.18246 v 1.777847 c 0,0.977827 0.04238,1.777855 0.09417,1.777855 0.05179,0 0.819866,-0.800028 1.706828,-1.777855 z m 6.221637,0 1.612656,-1.777847 h -1.637274 c -1.531404,0 -1.74155,0.114904 -3.249927,1.777847 l -1.612653,1.777855 h 1.637272 c 1.531404,0 1.74155,-0.1149 3.249926,-1.777855 z m 6.317185,0.253227 c 0.7579,-0.838545 1.378,-1.638588 1.378,-1.777857 0,-0.139265 -0.6318,-0.253217 -1.40399,-0.253217 -1.25147,0 -1.57919,0.193135 -3.01665,1.777847 l -1.612652,1.777855 h 1.638652 c 1.49754,0 1.75731,-0.1313 3.01664,-1.524628 z m 17.09582,-2.386651 c 0,-1.007446 -0.0728,-1.066714 -1.30982,-1.066714 -1.23704,0 -1.30982,0.05927 -1.30982,1.066714 0,1.007456 0.0727,1.06671 1.30982,1.06671 1.23706,0 1.30982,-0.05926 1.30982,-1.06671 z m 3.602,0 c 0,-1.007446 -0.0727,-1.066714 -1.30982,-1.066714 -1.23704,0 -1.30982,0.05927 -1.30982,1.066714 0,1.007456 0.0727,1.06671 1.30982,1.06671 1.23706,0 1.30982,-0.05926 1.30982,-1.06671 z m 3.27456,0 c 0,-1.007446 -0.0728,-1.066714 -1.30983,-1.066714 -1.23705,0 -1.30982,0.05927 -1.30982,1.066714 0,1.007456 0.0727,1.06671 1.30982,1.06671 1.23705,0 1.30983,-0.05926 1.30983,-1.06671 z m 3.602,0 c 0,-1.007446 -0.0728,-1.066714 -1.30982,-1.066714 -1.23706,0 -1.30983,0.05927 -1.30983,1.066714 0,1.007456 0.0727,1.06671 1.30983,1.06671 1.23704,0 1.30982,-0.05926 1.30982,-1.06671 z m 3.27452,0 c 0,-1.007446 -0.0728,-1.066714 -1.3098,-1.066714 -1.23705,0 -1.30983,0.05927 -1.30983,1.066714 0,1.007456 0.0727,1.06671 1.30983,1.06671 1.23705,0 1.3098,-0.05926 1.3098,-1.06671 z m 3.60202,0 c 0,-1.007446 -0.0727,-1.066714 -1.30982,-1.066714 -1.23706,0 -1.30982,0.05927 -1.30982,1.066714 0,1.007456 0.0727,1.06671 1.30982,1.06671 1.23704,0 1.30982,-0.05926 1.30982,-1.06671 z m -17.3551,-3.200136 c 0,-1.007448 -0.0728,-1.066709 -1.30982,-1.066709 -1.23704,0 -1.30982,0.05926 -1.30982,1.066709 0,1.007461 0.0727,1.066713 1.30982,1.066713 1.23706,0 1.30982,-0.05927 1.30982,-1.066713 z m 3.602,0 c 0,-1.007448 -0.0727,-1.066709 -1.30982,-1.066709 -1.23704,0 -1.30982,0.05926 -1.30982,1.066709 0,1.007461 0.0727,1.066713 1.30982,1.066713 1.23706,0 1.30982,-0.05927 1.30982,-1.066713 z m 3.27456,0 c 0,-1.007448 -0.0728,-1.066709 -1.30983,-1.066709 -1.23705,0 -1.30982,0.05926 -1.30982,1.066709 0,1.007461 0.0727,1.066713 1.30982,1.066713 1.23705,0 1.30983,-0.05927 1.30983,-1.066713 z m 3.602,0 c 0,-1.007448 -0.0728,-1.066709 -1.30982,-1.066709 -1.23706,0 -1.30983,0.05926 -1.30983,1.066709 0,1.007461 0.0727,1.066713 1.30983,1.066713 1.23704,0 1.30982,-0.05927 1.30982,-1.066713 z m 3.27452,0 c 0,-1.007448 -0.0728,-1.066709 -1.3098,-1.066709 -1.23705,0 -1.30983,0.05926 -1.30983,1.066709 0,1.007461 0.0727,1.066713 1.30983,1.066713 1.23705,0 1.3098,-0.05927 1.3098,-1.066713 z m 3.60202,0 c 0,-1.007448 -0.0727,-1.066709 -1.30982,-1.066709 -1.23706,0 -1.30982,0.05926 -1.30982,1.066709 0,1.007461 0.0727,1.066713 1.30982,1.066713 1.23704,0 1.30982,-0.05927 1.30982,-1.066713 z m -17.3551,-3.043814 c 0,-1.24545 -0.0199,-1.264171 -1.22795,-1.155596 -1.12106,0.100788 -1.2369,0.210952 -1.33057,1.265956 -0.10053,1.132442 -0.076,1.155612 1.22795,1.155612 1.30666,0 1.33057,-0.02271 1.33057,-1.265972 z m 3.54088,0.110343 c -0.0936,-1.055011 -0.20949,-1.165206 -1.33055,-1.265958 -1.20807,-0.108593 -1.22797,-0.0899 -1.22797,1.155611 0,1.243189 0.0239,1.265952 1.33057,1.265952 1.30389,0 1.32851,-0.02309 1.22795,-1.155605 z m 3.33568,-0.110343 c 0,-1.24545 -0.0199,-1.264171 -1.22797,-1.155596 -1.12106,0.100788 -1.23688,0.210952 -1.33056,1.265956 -0.10053,1.132442 -0.076,1.155612 1.22796,1.155612 1.30664,0 1.33057,-0.02271 1.33057,-1.265972 z m 3.54088,0.110343 c -0.0936,-1.055011 -0.2095,-1.165206 -1.33057,-1.265958 -1.20807,-0.108593 -1.22796,-0.0899 -1.22796,1.155611 0,1.243189 0.0239,1.265952 1.33058,1.265952 1.30389,0 1.32849,-0.02309 1.22795,-1.155605 z m 3.33564,-0.110343 c 0,-1.24545 -0.0199,-1.264171 -1.22793,-1.155596 -1.12108,0.100788 -1.2369,0.210952 -1.33058,1.265956 -0.10053,1.132442 -0.076,1.155612 1.22796,1.155612 1.30664,0 1.33055,-0.02271 1.33055,-1.265972 z m 3.5409,0.110343 c -0.0936,-1.055011 -0.20951,-1.165206 -1.33057,-1.265958 -1.20806,-0.108593 -1.22795,-0.0899 -1.22795,1.155611 0,1.243189 0.0239,1.265952 1.33057,1.265952 1.30389,0 1.32851,-0.02309 1.22795,-1.155605 z m -17.29398,-3.111241 c 0,-1.007456 -0.0728,-1.066709 -1.30982,-1.066709 -1.23704,0 -1.30982,0.05926 -1.30982,1.066709 0,1.007446 0.0727,1.066714 1.30982,1.066714 1.23706,0 1.30982,-0.05927 1.30982,-1.066714 z m 3.602,0 c 0,-1.007456 -0.0727,-1.066709 -1.30982,-1.066709 -1.23704,0 -1.30982,0.05926 -1.30982,1.066709 0,1.007446 0.0727,1.066714 1.30982,1.066714 1.23706,0 1.30982,-0.05927 1.30982,-1.066714 z m 3.27456,0 c 0,-1.007456 -0.0728,-1.066709 -1.30983,-1.066709 -1.23705,0 -1.30982,0.05926 -1.30982,1.066709 0,1.007446 0.0727,1.066714 1.30982,1.066714 1.23705,0 1.30983,-0.05927 1.30983,-1.066714 z m 3.602,0 c 0,-1.007456 -0.0728,-1.066709 -1.30982,-1.066709 -1.23706,0 -1.30983,0.05926 -1.30983,1.066709 0,1.007446 0.0727,1.066714 1.30983,1.066714 1.23704,0 1.30982,-0.05927 1.30982,-1.066714 z m 3.27452,0 c 0,-1.007456 -0.0728,-1.066709 -1.3098,-1.066709 -1.23705,0 -1.30983,0.05926 -1.30983,1.066709 0,1.007446 0.0727,1.066714 1.30983,1.066714 1.23705,0 1.3098,-0.05927 1.3098,-1.066714 z m 3.60202,0 c 0,-1.007456 -0.0727,-1.066709 -1.30982,-1.066709 -1.23706,0 -1.30982,0.05926 -1.30982,1.066709 0,1.007446 0.0727,1.066714 1.30982,1.066714 1.23704,0 1.30982,-0.05927 1.30982,-1.066714 z m 0,-9.422621 v -6.578062 h -9.98737 -9.98737 v 6.578056 6.578055 h 9.98737 9.98737 z M 45.917088,76.857235 c -0.301372,-0.52949 0.04805,-0.81738 0.675006,-0.55613 0.289331,0.12054 0.434344,0.38034 0.322251,0.57728 -0.265427,0.46635 -0.725347,0.45659 -0.997257,-0.0211 z m 5.578764,0.0211 c -0.11209,-0.19695 0.0329,-0.45672 0.32225,-0.57729 0.62696,-0.26124 0.97638,0.0266 0.67501,0.55615 -0.27191,0.47774 -0.73184,0.48749 -0.99726,0.0211 z m -7.202574,-1.41979 c -0.130706,-0.22964 -0.0903,-0.57753 0.08982,-0.77309 0.218303,-0.23705 0.40667,-0.21639 0.5651,0.062 0.130706,0.22964 0.0903,0.57753 -0.08982,0.7731 -0.218303,0.23704 -0.406669,0.21639 -0.5651,-0.062 z m 9.168734,0 c -0.13071,-0.22964 -0.0903,-0.57753 0.0898,-0.77309 0.2183,-0.23705 0.40667,-0.21639 0.56509,0.062 0.13071,0.22964 0.0903,0.57753 -0.0898,0.7731 -0.21831,0.23704 -0.40667,0.21639 -0.5651,-0.062 z m -11.069983,-1.29408 c -0.261614,-0.28408 0.03411,-0.83934 0.447029,-0.83934 0.169472,0 0.30813,0.24001 0.30813,0.53337 0,0.54985 -0.386385,0.7064 -0.755159,0.30597 z m 12.870983,-0.30597 c 0,-0.29336 0.22103,-0.53337 0.49118,-0.53337 0.27015,0 0.49118,0.24001 0.49118,0.53337 0,0.29334 -0.22103,0.53334 -0.49118,0.53334 -0.27015,0 -0.49118,-0.24 -0.49118,-0.53334 z m -14.89919,-0.53336 c -0.130705,-0.22965 -0.0903,-0.57754 0.08982,-0.7731 0.218304,-0.23705 0.406669,-0.21639 0.565099,0.062 0.130706,0.22964 0.0903,0.57753 -0.08982,0.77309 -0.218302,0.23705 -0.406669,0.2164 -0.565099,-0.0619 z m 17.02764,0 c -0.13071,-0.22965 -0.0903,-0.57754 0.0898,-0.7731 0.21831,-0.23705 0.40667,-0.21639 0.56511,0.062 0.1307,0.22964 0.0903,0.57753 -0.0898,0.77309 -0.2183,0.23705 -0.40667,0.2164 -0.5651,-0.0619 z m 3.11082,-26.845572 v -2.666775 h 2.78336 2.78337 v 2.666775 2.666782 h -2.78337 -2.78336 z"
       id="path338"
       inkscape:export-filename="1.svg"
       inkscape:export-xdpi="96"
       inkscape:export-ydpi="96" /></g></svg>
