<?xml version="1.0" encoding="UTF-8" standalone="no"?>
<!-- Created with Inkscape (http://www.inkscape.org/) -->

<svg
   width="66.145821mm"
   height="66.145836mm"
   viewBox="0 0 66.145821 66.145836"
   version="1.1"
   id="svg5"
   xml:space="preserve"
   xmlns:inkscape="http://www.inkscape.org/namespaces/inkscape"
   xmlns:sodipodi="http://sodipodi.sourceforge.net/DTD/sodipodi-0.dtd"
   xmlns="http://www.w3.org/2000/svg"
   xmlns:svg="http://www.w3.org/2000/svg"><sodipodi:namedview
     id="namedview7"
     pagecolor="#ffffff"
     bordercolor="#666666"
     borderopacity="1.0"
     inkscape:showpageshadow="2"
     inkscape:pageopacity="0.0"
     inkscape:pagecheckerboard="0"
     inkscape:deskcolor="#d1d1d1"
     inkscape:document-units="mm"
     showgrid="false" /><defs
     id="defs2" /><g
     inkscape:label="Layer 1"
     inkscape:groupmode="layer"
     id="layer1"
     transform="translate(-117.67901,-33.972762)"><path
       style="fill:#000000;stroke-width:0.375296"
       d="m 173.63171,99.574927 c -0.12103,-0.29901 -0.0288,-1.06367 0.20479,-1.69924 0.23361,-0.63556 0.42475,-1.21327 0.42475,-1.28377 0,-0.0706 -12.27792,-0.12819 -27.28424,-0.12819 -20.70726,0 -27.39573,-0.10568 -27.74669,-0.43859 -0.64849,-0.61502 -0.5756,-1.9603 0.14317,-2.64195 0.53906,-0.51124 3.58434,-0.57433 27.71979,-0.57433 h 27.11421 l -0.35848,-1.18542 c -0.50241,-1.66147 -0.44989,-2.10397 0.24979,-2.10397 0.5731,0 7.887,4.02685 8.9325,4.91802 0.37368,0.31852 -0.56261,1.01561 -4.09261,3.04706 -2.51744,1.44872 -4.69186,2.634053 -4.83206,2.634053 -0.14012,0 -0.35388,-0.244653 -0.47487,-0.543663 z m -51.92758,-14.45039 c -2.58285,-0.7416 -4.26845,-3.24127 -3.9964,-5.92648 0.21278,-2.10019 1.17316,-3.49848 3.01438,-4.3889 1.22303,-0.59146 3.45903,-0.63903 30.03152,-0.63903 26.5725,0 28.8085,0.0475 30.03153,0.63903 1.90716,0.92232 2.82535,2.3087 3.01531,4.55287 0.18194,2.1495 -0.64767,3.72833 -2.72698,5.18974 -1.07884,0.75824 -1.3248,0.76511 -29.67354,0.82805 -15.72212,0.0349 -29.08525,-0.08 -29.69582,-0.25528 z m 3.61504,-3.64581 c 0.93629,-0.88798 0.99806,-2.44535 0.13298,-3.35197 -0.7947,-0.83282 -2.7319,-0.86636 -3.6673,-0.0635 -1.53737,1.31952 -0.31006,4.14646 1.80017,4.14646 0.52988,0 1.31025,-0.32895 1.73416,-0.73098 z m 8.49466,0.35711 c 1.8762,-0.9523 1.70462,-3.77182 -0.25798,-4.23899 -3.07031,-0.73084 -4.84709,2.73717 -2.16236,4.22061 0.86361,0.47719 1.5068,0.48208 2.42034,0.0184 z m 9.61776,-0.35711 c 0.9363,-0.88798 0.99807,-2.44535 0.13298,-3.35197 -0.79468,-0.83282 -2.73187,-0.86636 -3.66728,-0.0635 -1.53737,1.31952 -0.31006,4.14646 1.80017,4.14646 0.52988,0 1.31026,-0.32895 1.73416,-0.73098 z m 9.11064,-0.20112 c 1.7082,-1.62006 0.5375,-3.81923 -2.03309,-3.81923 -0.85824,0 -1.44238,0.25604 -1.85319,0.8123 -0.80478,1.0897 -0.75564,1.82525 0.1988,2.97602 1.02015,1.22999 2.41087,1.24163 3.68748,0.031 z m 9.00179,0.20112 c 2.29378,-2.17543 -1.12728,-5.48145 -3.53433,-3.41547 -1.53737,1.31951 -0.31007,4.14645 1.80015,4.14645 0.5299,0 1.31027,-0.32894 1.73418,-0.73098 z m 9.07372,-0.16612 c 1.06442,-1.00951 1.13607,-1.36676 0.50285,-2.50768 -0.6004,-1.08181 -1.07537,-1.33438 -2.5217,-1.34095 -1.31378,-0.006 -2.43042,1.04397 -2.43042,2.28525 0,0.905 1.70538,2.46048 2.69759,2.46048 0.44317,0 1.23142,-0.4037 1.75168,-0.8971 z m 8.45174,0.46896 c 2.15756,-0.93233 1.49666,-4.03713 -0.90626,-4.25753 -1.67157,-0.15332 -2.74586,0.7645 -2.74586,2.34592 0,0.82762 0.26669,1.379 0.85649,1.77079 1.02586,0.68147 1.49034,0.70486 2.79563,0.14082 z m -54.01415,-10.53903 c -0.96462,-0.36859 -1.66301,-1.43254 -1.66301,-2.53345 0,-0.93824 6.67433,-13.19366 7.99749,-14.68501 1.9696,-2.21998 7.34044,-3.89129 10.94566,-3.40612 2.90829,0.39139 4.23323,0.89353 9.8633,3.73807 l 5.49153,2.77455 v 3.0369 c 0,1.6703 -0.0814,3.0369 -0.18104,3.0369 -0.0996,0 -2.0712,-0.98682 -4.38137,-2.19292 -2.31017,-1.20612 -4.30971,-2.19293 -4.44339,-2.19293 -0.13371,0 -0.24309,2.87821 -0.24309,6.39602 v 6.39603 h -7.69555 -7.69555 l -0.10822,-4.47721 -0.10822,-4.47723 -2.22576,4.12434 c -2.50935,4.64981 -3.33183,5.31074 -5.55281,4.46206 z m 34.9472,-6.21073 v -6.57877 h 8.86353 8.86353 v 6.57877 6.57877 h -8.86353 -8.86353 z m 9.94713,3.9248 c 0.089,-0.43859 -0.11841,-0.63542 -0.66998,-0.63542 -0.5515,0 -0.79899,0.23472 -0.79899,0.75778 0,0.93661 1.2755,0.83035 1.46897,-0.12239 z m 2.7701,0.0956 c 0,-0.48732 -0.2569,-0.73098 -0.77073,-0.73098 -0.74268,0 -1.04433,0.71518 -0.51384,1.2183 0.5305,0.50311 1.28457,0.21704 1.28457,-0.48732 z m 3.01046,-0.0956 c 0.089,-0.43859 -0.11841,-0.63542 -0.66998,-0.63542 -0.5515,0 -0.79899,0.23472 -0.79899,0.75778 0,0.93661 1.2755,0.83035 1.46897,-0.12239 z M 138.28198,47.318533 c -5.51367,-1.864157 -6.61286,-8.747196 -1.93704,-12.129608 2.66805,-1.930023 7.6208,-1.50206 9.86589,0.852502 3.52812,3.700156 1.58787,10.099834 -3.46561,11.430908 -1.85196,0.487803 -2.64652,0.460424 -4.46324,-0.153802 z"
       id="path397" /></g></svg>
