<?xml version="1.0" encoding="UTF-8" standalone="no"?>
<!-- Created with Inkscape (http://www.inkscape.org/) -->

<svg
   width="66.145828mm"
   height="66.145805mm"
   viewBox="0 0 66.145828 66.145805"
   version="1.1"
   id="svg5"
   xml:space="preserve"
   xmlns:inkscape="http://www.inkscape.org/namespaces/inkscape"
   xmlns:sodipodi="http://sodipodi.sourceforge.net/DTD/sodipodi-0.dtd"
   xmlns="http://www.w3.org/2000/svg"
   xmlns:svg="http://www.w3.org/2000/svg"><sodipodi:namedview
     id="namedview7"
     pagecolor="#ffffff"
     bordercolor="#666666"
     borderopacity="1.0"
     inkscape:showpageshadow="2"
     inkscape:pageopacity="0.0"
     inkscape:pagecheckerboard="0"
     inkscape:deskcolor="#d1d1d1"
     inkscape:document-units="mm"
     showgrid="false" /><defs
     id="defs2" /><g
     inkscape:label="Layer 1"
     inkscape:groupmode="layer"
     id="layer1"
     transform="translate(-31.424914,-114.49041)"><path
       style="fill:#000000;stroke-width:0.294644"
       d="m 62.916833,180.4352 c -1.689848,-0.48718 -28.877897,-14.59083 -29.826811,-15.47249 -0.545118,-0.50648 -1.140989,-1.4023 -1.324158,-1.99068 -0.447831,-1.43857 -0.45763,-29.33189 -0.01085,-30.76695 0.177223,-0.56918 0.666351,-1.39967 1.086947,-1.84553 0.921639,-0.97697 29.595674,-15.73866 30.170602,-15.53213 0.296503,0.10652 0.288143,0.1471 -0.03372,0.16362 -0.2354,0.0121 -6.958958,3.3717 -14.941236,7.4658 -12.513317,6.41808 -14.625344,7.59443 -15.326794,8.53662 l -0.813558,1.09277 v 15.48487 15.48487 l 0.813558,1.09277 c 0.701548,0.94232 2.82771,2.12626 15.44282,8.59923 14.288355,7.33152 14.669247,7.50645 16.345134,7.50645 1.675875,0 2.056767,-0.17493 16.345126,-7.50645 12.615114,-6.47297 14.741272,-7.65691 15.442827,-8.59923 l 0.813559,-1.09277 V 147.5711 132.08623 l -0.813559,-1.09277 c -0.702062,-0.94301 -2.797174,-2.10824 -15.286841,-8.502 -7.960291,-4.07508 -14.683848,-7.47753 -14.941239,-7.56101 -0.376364,-0.12206 -0.381423,-0.15608 -0.02594,-0.17375 0.775155,-0.0385 29.311076,14.74236 30.122832,15.60285 0.420593,0.44586 0.909716,1.27635 1.08695,1.84553 0.43769,1.40574 0.43769,29.32629 0,30.73203 -0.177234,0.56918 -0.666357,1.39967 -1.08695,1.84553 -0.447183,0.47404 -6.767091,3.88575 -15.220055,8.21636 -15.005018,7.68733 -15.886259,8.051 -18.01875,7.4362 z m -18.36184,-14.67467 c -0.827441,-0.93829 -0.832113,-2.32352 -0.01049,-3.11015 0.349857,-0.33497 0.771024,-0.60902 0.935928,-0.60902 0.181643,0 0.300014,-2.1663 0.300307,-5.49592 6.56e-4,-7.51128 0.372622,-8.12718 4.913141,-8.13542 1.841939,-0.003 2.377658,-0.10742 2.885779,-0.56065 1.156182,-1.03128 2.896739,-0.56002 3.288555,0.89039 0.157374,0.58256 0.02429,0.91061 -0.592697,1.46093 -1.001952,0.89372 -1.470618,0.89091 -2.67906,-0.0161 -0.889158,-0.66735 -1.153973,-0.71736 -3.289642,-0.62116 -1.319714,0.0594 -2.495369,0.25842 -2.722654,0.46078 -0.291737,0.25976 -0.426057,1.85995 -0.496226,5.91174 l -0.09622,5.55557 1.15133,0.96854 c 1.038482,0.87361 1.132932,1.07102 0.963635,2.01412 -0.236755,1.3189 -1.178464,2.01954 -2.714397,2.01954 -0.914746,0 -1.340552,-0.16992 -1.837294,-0.73321 z m 2.722746,-0.71381 c 0.580042,-0.51739 0.442262,-1.562 -0.24958,-1.89227 -1.199468,-0.57258 -2.505301,0.61391 -1.859762,1.68981 0.360053,0.60009 1.536918,0.71305 2.109342,0.20246 z m 26.070001,-0.54809 c -0.73898,-0.31916 -1.361486,-1.33824 -1.361486,-2.2288 0,-0.31909 0.491364,-0.99352 1.091915,-1.49873 0.991217,-0.83384 1.091914,-1.05998 1.091914,-2.45197 0,-1.84571 -0.635948,-2.3998 -2.754312,-2.3998 -1.087151,0 -1.493359,0.14263 -1.981067,0.69567 -1.455509,1.65051 -4.318478,0.14157 -3.309962,-1.74453 0.313316,-0.58592 0.661983,-0.77908 1.522766,-0.84357 0.721705,-0.0541 1.258336,0.0689 1.517872,0.34784 0.272425,0.29281 0.945645,0.43148 2.094617,0.43148 3.020122,0 4.157987,1.04695 4.157987,3.82573 0,1.01696 0.167235,1.37753 0.935929,2.01803 2.391685,1.99282 -0.05389,5.12375 -3.006173,3.84865 z m 2.19338,-1.1492 c 0.368806,-0.24054 0.519285,-0.63639 0.449587,-1.18266 -0.08631,-0.67612 -0.267295,-0.8376 -1.025294,-0.91454 -0.612436,-0.0622 -1.056222,0.072 -1.325899,0.40103 -0.541819,0.66093 -0.514699,0.84711 0.218597,1.50119 0.733296,0.65408 0.942036,0.67827 1.683009,0.19498 z m -24.457272,-0.39239 c -0.854545,-0.28027 -1.522165,-0.96385 -1.717973,-1.75905 -0.236682,-0.9612 0.521228,-2.38459 1.402576,-2.63409 0.47611,-0.13479 0.629766,-0.4247 0.637296,-1.20239 0.02006,-2.07104 1.083929,-2.55529 5.613926,-2.55529 3.008639,0 3.588673,-0.0755 4.274262,-0.55654 0.954017,-0.66936 1.58776,-0.70049 2.51152,-0.12336 0.882396,0.55129 0.917274,1.87156 0.06945,2.62783 -0.838238,0.74768 -1.738321,0.70095 -2.680157,-0.13915 -0.739546,-0.65964 -0.961834,-0.69567 -4.291094,-0.69567 -2.314926,0 -3.638695,0.11376 -3.885521,0.33393 -0.703037,0.62708 -0.435009,1.88267 0.561557,2.63064 0.937707,0.7038 1.227517,1.87761 0.742135,3.00585 -0.364805,0.84797 -2.131297,1.43023 -3.237945,1.06729 z m 1.693586,-1.35297 c 0.942297,-0.8405 0.400135,-2.06718 -0.913645,-2.06718 -1.31378,0 -1.855942,1.22668 -0.913645,2.06718 0.269637,0.24051 0.680777,0.43729 0.913645,0.43729 0.232868,0 0.644008,-0.19678 0.913645,-0.43729 z m 30.286676,-9.09361 c -0.452075,-0.34857 -0.854569,-0.98827 -0.907971,-1.4431 -0.116498,-0.99222 -0.687205,-1.2245 -3.072428,-1.25051 -1.397366,-0.0153 -1.93178,0.10349 -2.417814,0.53699 -0.870676,0.77662 -2.008105,0.70447 -2.785147,-0.17666 -0.837743,-0.94997 -0.815115,-1.36798 0.119162,-2.20132 0.976479,-0.871 1.880783,-0.8669 2.79465,0.0126 0.604867,0.58217 1.007337,0.69569 2.46623,0.69569 0.958874,0 2.088379,0.14021 2.51001,0.31156 0.612153,0.24878 0.911956,0.22075 1.487993,-0.13913 1.022571,-0.63887 2.278879,-0.55867 3.279918,0.20936 0.679269,0.52117 0.853131,0.88549 0.826247,1.73139 -0.06473,2.03572 -2.582019,3.0384 -4.30085,1.71309 z m 2.78326,-1.10019 c 0.410665,-0.52295 0.419143,-0.69702 0.05766,-1.18266 -0.233136,-0.3132 -0.740618,-0.56946 -1.127724,-0.56946 -0.387106,0 -0.894589,0.25626 -1.127737,0.56946 -0.361507,0.48564 -0.353017,0.65971 0.05766,1.18266 0.264843,0.33727 0.746385,0.61321 1.070101,0.61321 0.323716,0 0.805258,-0.27594 1.070101,-0.61321 z m -24.975501,0.97791 c -0.364738,-0.0638 -0.996489,-0.43254 -1.403887,-0.81934 -0.711205,-0.67527 -0.740717,-0.86846 -0.740717,-4.84867 v -4.14536 l 0.86502,-0.77158 0.865028,-0.77158 h 4.855555 4.855556 l 0.752917,0.78078 c 0.721116,0.74777 0.752929,0.95141 0.752929,4.81851 0,2.36022 -0.140044,4.27117 -0.337076,4.59957 -0.611493,1.01916 -2.168194,1.35244 -6.126402,1.31163 -2.021665,-0.0208 -3.974174,-0.0901 -4.338923,-0.15396 z m -15.55958,-5.97324 c -0.989892,-0.48294 -1.403893,-1.10511 -1.403893,-2.10983 0,-1.28235 1.166719,-2.2995 2.637617,-2.2995 1.071063,0 2.354003,0.7583 2.354003,1.39138 0,0.15737 0.893527,0.27827 2.056631,0.27827 1.584238,0 2.23883,-0.12784 2.849858,-0.55656 1.545743,-1.08452 3.20489,-0.39221 3.20489,1.33731 0,1.63343 -2.584989,2.30015 -3.433708,0.88561 -0.277338,-0.46223 -0.655141,-0.55327 -2.296109,-0.55327 -1.751589,0 -2.007328,0.0719 -2.36312,0.66496 -0.677156,1.12858 -2.349743,1.57461 -3.606169,0.96163 z m 2.277427,-1.1257 c 1.008456,-0.89951 -0.122838,-2.42056 -1.508545,-2.02827 -0.760448,0.21529 -1.12823,1.39093 -0.609532,1.94842 0.463636,0.49829 1.600894,0.54117 2.118077,0.0798 z m 36.053391,1.12163 c -0.366424,-0.15826 -0.84641,-0.58808 -1.066646,-0.95513 -0.366342,-0.61057 -0.593901,-0.66739 -2.673354,-0.66739 -2.008482,0 -2.363669,0.081 -3.052866,0.69569 -0.898963,0.80185 -1.629819,0.87533 -2.610743,0.26249 -0.874107,-0.54611 -0.942484,-2.06219 -0.122841,-2.72383 0.773446,-0.62435 2.019224,-0.58013 2.705226,0.096 0.468324,0.4616 0.960878,0.55655 2.886963,0.55655 2.17804,0 2.376581,-0.0519 3.196566,-0.83482 1.140271,-1.0888 2.791608,-1.15284 3.913885,-0.15179 1.073379,0.95742 1.017383,2.19635 -0.146164,3.23421 -0.943675,0.84173 -1.866822,0.99041 -3.030026,0.48801 z m 2.378714,-1.20148 c 0.977976,-1.05111 -0.850147,-2.68174 -2.028539,-1.80941 -0.558644,0.41355 -0.606717,1.42796 -0.08949,1.88926 0.517187,0.46132 1.654439,0.41844 2.11807,-0.0798 z m -24.812924,-6.11301 c -0.899906,-0.80268 -0.953226,-1.31337 -0.248264,-2.37784 0.483546,-0.73015 0.481506,-0.89725 -0.03101,-2.5474 -0.721694,-2.32339 -1.451146,-3.01822 -3.168624,-3.01822 -1.056824,0 -1.515232,0.16922 -2.261442,0.83482 -1.575941,1.4057 -3.762287,1.07019 -4.408568,-0.67652 -0.737309,-1.99272 1.32126,-3.66189 3.510111,-2.84612 0.606272,0.22594 1.190236,0.65792 1.297699,0.95992 0.159363,0.44787 0.547343,0.57182 2.104283,0.67227 1.641038,0.10588 2.027012,0.24108 2.750663,0.96349 0.506244,0.50539 1.06746,1.60626 1.408014,2.76199 0.389252,1.32095 0.843049,2.15598 1.451688,2.67123 1.124718,0.95216 1.148029,1.94768 0.06344,2.70867 -1.065007,0.74724 -1.533637,0.72706 -2.467915,-0.10629 z m -6.441108,-8.41195 c 0.115295,-1.0616 -0.795191,-1.68659 -1.77538,-1.21868 -1.463458,0.69861 -0.951949,2.33193 0.685971,2.19039 0.863672,-0.0746 1.005742,-0.20134 1.089409,-0.97171 z m 11.766509,8.4387 c -0.823098,-0.53686 -0.768163,-2.07697 0.09633,-2.7014 0.526903,-0.38058 0.675956,-0.78899 0.675956,-1.85223 0,-1.18382 -0.120047,-1.44316 -0.908785,-1.96331 -1.143761,-0.75426 -1.475766,-1.96952 -0.838415,-3.06889 0.539,-0.92972 1.047178,-1.16712 2.498266,-1.16712 1.376106,0 2.368692,0.96953 2.368692,2.31369 0,0.99388 -0.834984,2.13869 -1.559885,2.13869 -0.1724,0 -0.311972,0.72769 -0.311972,1.62651 0,1.27312 0.135575,1.73596 0.623956,2.13019 0.343172,0.27702 0.623944,0.84053 0.623944,1.25224 0,1.40943 -1.922524,2.16925 -3.268115,1.29163 z m 2.040731,-7.42345 c 0.674529,-0.32201 0.802204,-1.37126 0.229068,-1.88248 -0.666806,-0.59477 -1.792974,-0.39239 -2.194901,0.39445 -0.328386,0.64285 -0.286904,0.78988 0.353218,1.25222 0.8474,0.61206 0.829807,0.60949 1.612615,0.23581 z m -4.62216,-17.15677 c 0.300275,-0.07 0.791639,-0.07 1.091914,0 0.300276,0.07 0.05459,0.12727 -0.545957,0.12727 -0.600551,0 -0.846233,-0.0572 -0.545957,-0.12727 z"
       id="path526" /></g></svg>
