<?xml version="1.0" encoding="UTF-8" standalone="no"?>
<!-- Created with Inkscape (http://www.inkscape.org/) -->

<svg
   width="66.145782mm"
   height="66.145828mm"
   viewBox="0 0 66.145782 66.145828"
   version="1.1"
   id="svg5"
   xml:space="preserve"
   xmlns:inkscape="http://www.inkscape.org/namespaces/inkscape"
   xmlns:sodipodi="http://sodipodi.sourceforge.net/DTD/sodipodi-0.dtd"
   xmlns="http://www.w3.org/2000/svg"
   xmlns:svg="http://www.w3.org/2000/svg"><sodipodi:namedview
     id="namedview7"
     pagecolor="#ffffff"
     bordercolor="#666666"
     borderopacity="1.0"
     inkscape:showpageshadow="2"
     inkscape:pageopacity="0.0"
     inkscape:pagecheckerboard="0"
     inkscape:deskcolor="#d1d1d1"
     inkscape:document-units="mm"
     showgrid="false" /><defs
     id="defs2" /><g
     inkscape:label="Layer 1"
     inkscape:groupmode="layer"
     id="layer1"
     transform="translate(-114.54444,-119.74571)"><path
       style="fill:#000000;stroke-width:0.488851"
       d="m 151.79707,180.44832 c -13.08903,-5.29952 -16.99036,-7.34212 -12.756,-6.67861 1.03517,0.1623 3.21174,0.85528 4.83689,1.54016 6.05547,2.55196 20.15766,8.15989 20.52032,8.16017 0.20659,1.9e-4 0.32991,-1.33995 0.27357,-2.97808 l -0.10241,-2.97845 -8.00019,-3.24022 c -8.11528,-3.28687 -9.29585,-3.84934 -8.8086,-4.19699 0.14954,-0.10671 2.60642,0.77754 5.45965,1.96502 2.8532,1.18749 6.68203,2.75852 8.50852,3.49116 l 3.32089,1.33213 2.34085,-3.32165 c 1.28751,-1.82688 2.21099,-3.47158 2.05223,-3.65486 -0.15875,-0.18325 -3.68322,-1.69327 -7.83211,-3.35559 -4.14889,-1.66229 -7.54345,-3.1767 -7.54345,-3.36534 0,-0.53459 0.0354,-0.52263 8.02708,2.75385 4.15471,1.70327 7.69445,3.09683 7.86606,3.09683 0.17152,0 0.3122,-6.60721 0.3122,-14.68268 0,-9.90034 0.19277,-14.5977 0.59186,-14.42174 0.38795,0.17096 0.56368,5.33654 0.50996,14.99239 l -0.0819,14.7314 -2.82498,4.01838 c -2.58952,3.6834 -2.82503,4.26361 -2.82503,6.96044 0,3.45345 -0.53491,3.44258 7.31063,0.14834 l 5.42205,-2.27661 v -21.2514 c 0,-11.68825 -0.11304,-21.25139 -0.25089,-21.25139 -0.40982,0 -6.3766,2.65423 -6.72929,2.99341 -0.1786,0.1718 -3.56419,-1.05105 -7.52386,-2.71708 -18.32184,-7.70902 -25.4037,-10.59911 -25.97217,-10.59911 -0.40248,0 -0.61556,1.80873 -0.61556,5.22539 0,5.19924 -0.007,5.22164 -1.1575,4.47801 -1.04296,-0.67339 -1.15753,-1.27173 -1.15753,-6.04602 v -5.29866 l 2.17034,-0.96621 c 1.19371,-0.53141 3.49661,-1.49332 5.11762,-2.13761 l 2.94727,-1.17139 17.74332,7.34078 17.74331,7.34075 -0.004,22.5599 -0.004,22.55992 -4.77094,1.95002 c -2.62403,1.0725 -6.09831,2.50003 -7.72066,3.17226 l -2.94973,1.2222 -13.44403,-5.44325 z m 22.78598,-43.81363 3.29331,-1.41485 -5.39355,-2.24736 c -2.96645,-1.23606 -10.13506,-4.22266 -15.93021,-6.63691 -5.79516,-2.41424 -10.87376,-4.38778 -11.28578,-4.38566 -1.25239,0.006 -6.88823,2.48073 -6.54723,2.87436 0.17541,0.20225 3.76529,1.77554 7.97783,3.49608 4.21253,1.72053 11.17511,4.59707 15.47237,6.39228 4.2973,1.79523 8.10724,3.28044 8.46657,3.30047 0.35932,0.0196 2.13532,-0.60023 3.94669,-1.37841 z m -52.05813,44.35758 -7.52385,-0.20644 -0.1545,-10.41968 c -0.14352,-9.67345 -0.0684,-10.59022 1.04895,-12.80023 1.95123,-3.85931 1.95998,-4.09263 0.25443,-6.80398 -1.36175,-2.16484 -1.59864,-3.09203 -1.60548,-6.28398 -0.007,-4.01553 0.87716,-6.20998 3.23339,-8.01038 2.70529,-2.06713 7.22913,-2.89291 11.57317,-2.11249 3.23669,0.58146 7.6281,3.41814 8.20809,5.30212 0.21333,0.69323 1.1502,1.71797 2.08175,2.2772 2.22044,1.33299 2.2254,2.30884 0.0106,2.30884 -1.5923,0 -1.70332,0.11565 -2.0827,2.16777 -0.55441,2.99909 -2.12385,5.37856 -4.26498,6.46628 -1.17734,0.59812 -1.80924,1.26984 -1.80924,1.92329 0,1.13966 -0.67982,1.29297 -1.73004,0.39014 -1.04949,-0.90218 -0.25692,-2.50573 1.74017,-3.52024 2.21988,-1.12773 3.22134,-2.53674 3.73825,-5.25947 l 0.41156,-2.16777 h -3.70271 c -3.47184,0 -3.82511,0.0902 -5.66603,1.44518 -1.83496,1.35068 -2.20198,1.44519 -5.61174,1.44519 -4.21558,0 -4.26402,0.0715 -2.19585,3.24105 1.78337,2.73315 1.81807,4.34675 0.13891,6.46846 -1.23779,1.56413 -1.31118,2.15412 -1.48425,11.92744 -0.11127,6.29171 0.0354,10.37791 0.37516,10.52924 0.30653,0.13604 3.96948,0.19051 8.13999,0.12124 l 7.58275,-0.12627 v -3.91423 c 0,-3.80834 0.0319,-3.90206 1.1774,-3.46465 1.0839,0.41385 1.16437,0.78402 1.01285,4.65976 l -0.16443,4.2102 -2.60439,0.20644 c -1.43245,0.11341 -5.99013,0.11341 -10.12825,0 z m 2.70351,-35.36786 c 0.58212,-0.37584 1.05842,-0.84037 1.05842,-1.03228 0,-0.4726 -9.10683,-0.44702 -9.51726,0.0279 -0.17895,0.20672 -0.16655,0.67114 0.0284,1.03228 0.50777,0.94403 6.95921,0.92358 8.43106,-0.0279 z m 10.38222,-4.87841 c -0.54008,-1.01507 -1.56494,-2.32393 -2.27749,-2.90861 -0.71252,-0.58465 -1.1188,-1.28707 -0.90285,-1.56091 0.29837,-0.37847 0.219,-0.38349 -0.33169,-0.0223 -0.55011,0.36215 -1.22198,0.32862 -2.79139,-0.13912 -5.34561,-1.59351 -12.28041,1.58927 -12.28041,5.6362 0,0.81042 0.33417,0.83908 9.78292,0.83908 h 9.78296 z m -3.26812,28.44775 c -3.48981,-1.72009 -6.27351,-3.31327 -6.18605,-3.54043 0.0875,-0.22711 -0.0854,-0.30519 -0.38449,-0.17348 -1.06447,0.46936 -5.53892,-2.41885 -6.06345,-3.91393 -0.72634,-2.07011 0.65327,-4.18598 3.31741,-5.08791 3.06284,-1.03695 5.5358,-0.38715 11.43104,3.00358 l 4.98699,2.86835 4.56251,-3.7283 c 2.50939,-2.05055 4.87884,-4.12712 5.26545,-4.61458 0.38661,-0.4875 0.71217,-2.30131 0.72344,-4.0307 0.0177,-2.5093 0.25549,-3.35743 1.18354,-4.19922 1.42029,-1.28819 6.04523,-3.18564 7.76485,-3.18564 2.66166,0 3.51525,1.97153 1.51221,3.4927 -1.0717,0.81388 -1.08548,0.96461 -0.24699,2.70085 0.48842,1.01138 0.93407,2.8652 0.99038,4.11956 0.0964,2.14646 0.0177,2.28817 -1.34456,2.40809 -1.76548,0.1556 -2.77882,1.1274 -8.86466,8.50212 -8.29258,10.04879 -8.8479,10.20897 -18.64758,5.37886 z m 11.35942,-0.27907 c 1.48857,-1.45454 10.41801,-11.79809 12.03054,-13.93572 0.25692,-0.34067 0.74448,-0.99099 1.08336,-1.44519 0.33877,-0.45422 0.88485,-0.78318 1.2132,-0.73105 0.33027,0.0525 0.51316,-0.40863 0.40922,-1.03228 -0.10312,-0.61987 -0.21758,-1.36529 -0.25372,-1.65648 -0.0361,-0.29122 -0.65196,-0.69751 -1.36817,-0.90288 -0.99774,-0.28611 -1.06539,-0.37956 -0.28951,-0.39961 1.44729,-0.0374 1.25452,-0.76919 -0.24416,-0.92652 -2.12462,-0.22292 -1.83025,-1.0668 0.78272,-2.24362 1.37245,-0.61811 2.1899,-1.19647 1.81661,-1.28525 -0.72046,-0.17124 -5.39083,1.76277 -6.10834,2.52961 -0.23388,0.25002 -0.42921,1.81077 -0.4341,3.46851 -0.007,1.98226 -0.33594,3.46652 -0.96451,4.33557 -1.00239,1.3861 -11.07121,9.79556 -11.70166,9.77319 -0.20057,-0.008 -2.80032,-1.41247 -5.77715,-3.12301 -6.10927,-3.51055 -7.55543,-4.0348 -9.60011,-3.48018 -3.21571,0.87226 -3.42879,3.14446 -0.46925,5.00352 1.19371,0.74983 2.10836,1.50564 2.0326,1.67956 -0.0758,0.17403 0.22289,0.21761 0.6634,0.0969 0.44062,-0.12067 1.21884,0.20616 1.72933,0.72611 0.5105,0.51998 0.92819,0.80607 0.92819,0.63572 0,-0.1704 2.27884,0.79977 5.06414,2.15576 2.78526,1.35601 5.64849,2.47601 6.36271,2.48886 0.88098,0.0168 1.87607,-0.54096 3.09448,-1.73152 z m -11.62753,-1.11113 c 0,-0.2137 -0.26046,-0.50339 -0.57878,-0.64373 -0.31822,-0.14024 -0.57875,0.0344 -0.57875,0.38854 0,0.35405 0.26046,0.64373 0.57875,0.64373 0.31822,0 0.57878,-0.17487 0.57878,-0.38854 z m 2.41899,-10.0513 c -0.39082,-0.33598 -0.42002,-0.75165 -0.0797,-1.1355 0.29519,-0.33304 0.54076,-1.04074 0.54565,-1.57268 0.004,-0.53193 0.52974,-1.43957 1.16639,-2.01701 l 1.15749,-1.04985 v 1.91986 c 0,1.72288 0.19313,2.00376 1.88097,2.73795 1.03453,0.44997 2.14142,0.88632 2.45974,0.96967 0.31822,0.0832 0.39455,0.29296 0.16939,0.46576 -0.22502,0.17264 -1.37245,-0.0913 -2.54954,-0.58674 -1.69404,-0.7131 -2.24029,-0.78832 -2.62027,-0.36086 -0.26401,0.297 -0.48407,0.67937 -0.48892,0.84969 -0.0142,0.48889 -0.96465,0.36128 -1.64117,-0.22041 z m 29.82663,-3.85432 c -0.19668,-0.14051 -0.2151,-0.76396 -0.0408,-1.38576 0.22503,-0.80285 0.0493,-1.20388 -0.60688,-1.38348 -0.50809,-0.13911 -0.92379,-0.44059 -0.92379,-0.66993 0,-0.2665 0.52212,-0.24722 1.44687,0.0533 1.17766,0.38282 1.4469,0.76536 1.4469,2.0557 0,1.47432 -0.46485,1.94192 -1.32231,1.33018 z m -0.49002,-4.92799 c -0.83764,-0.31494 -1.67621,-0.85757 -1.86353,-1.20583 -0.2966,-0.55152 -0.15627,-0.547 1.08889,0.0349 1.34853,0.63041 1.42947,0.62345 1.42947,-0.12235 0,-0.43492 -0.3083,-1.01063 -0.68488,-1.27936 -0.99122,-0.70717 -0.2803,-1.00147 0.91398,-0.37841 0.7178,0.37447 0.95834,0.96457 0.82591,2.02603 -0.18427,1.47784 -0.20695,1.49008 -1.70984,0.92504 z m -18.1548,-1.88295 c -0.95497,-0.44665 -2.12476,-0.97657 -2.59961,-1.17756 -0.47481,-0.20114 -0.69058,-0.4887 -0.47949,-0.63932 0.4679,-0.3338 5.6835,1.79124 5.6835,2.31569 0,0.54171 -0.64317,0.41852 -2.6044,-0.49881 z m 18.23085,-3.05018 c -0.49778,-0.4279 -0.51968,-0.61937 -0.0709,-0.61937 1.04551,0 0.75848,-2.06064 -0.3285,-2.35823 -0.5477,-0.15001 -1.07882,-0.0522 -1.20696,0.22208 -0.33806,0.72368 -1.28748,0.14973 -1.28748,-0.77846 0,-0.99672 0.40437,-1.00013 2.65157,-0.0224 1.49088,0.64862 1.79875,1.05476 1.87678,2.47592 0.0978,1.77954 -0.42194,2.12311 -1.63458,1.08066 z m -8.21922,-4.77834 -0.17293,-2.53138 -6.87554,-2.84849 c -3.78156,-1.56664 -6.98809,-2.84846 -7.12559,-2.84846 -0.13749,0 -0.21616,1.53293 -0.1747,3.40652 0.11553,5.22251 0.0283,6.66506 -0.37732,6.37446 -0.56624,-0.404 -0.3448,-10.82463 0.22821,-10.7368 0.27427,0.0422 3.93528,1.50108 8.13534,3.24232 l 7.63643,3.16588 v 2.41081 c 0,3.27358 -1.05505,3.57589 -1.27415,0.36514 z"
       id="path571" /></g></svg>
